# xmcd CD database file
#
# Track frame offsets:
#	150
#	11455
#	21028
#	31363
#	43588
#	52595
#	66633
#	77153
#	88575
#	100425
#
# Disc length: 1463 seconds
#
# Revision: 5
# Processed by: cddbd v1.5.2PL0 Copyright (c) Steve Scherf et al.
# Submitted via: CDex 1.51
#
DISCID=7505b50a
DTITLE=Canned Heat - One Step Behind The Blues
DYEAR=1993
DGENRE=Blues
TTITLE0=Spoonful
TTITLE1=Big Road Blues
TTITLE2=Rollin' And Tumblin' (with Harmonica)
TTITLE3=Got My Mojo Working
TTITLE4=Pretty Thing
TTITLE5=Louise
TTITLE6=Dimples
TTITLE7=Don't Hold On
TTITLE8=Straight Ahead
TTITLE9=Rollin' And Tumblin'
EXTD=YEAR: 1993
EXTT0=
EXTT1=
EXTT2=
EXTT3=
EXTT4=
EXTT5=
EXTT6=
EXTT7=
EXTT8=
EXTT9=
PLAYORDER=
